<svg width="15" height="14" viewBox="0 0 15 14" fill="none" xmlns="http://www.w3.org/2000/svg">
<path d="M8.83333 5.50003C8.44473 5.15851 7.93945 4.97993 7.42255 5.00141C6.90565 5.02289 6.41693 5.24278 6.058 5.61536C5.6996 5.98722 5.49935 6.48357 5.49935 7.00003C5.49935 7.51649 5.6996 8.01283 6.058 8.38469C6.41693 8.75727 6.90565 8.97716 7.42255 8.99864C7.93945 9.02012 8.44473 8.84154 8.83333 8.50003M1.5 7C1.5 7.78793 1.65519 8.56815 1.95672 9.2961C2.25825 10.0241 2.70021 10.6855 3.25736 11.2426C3.81451 11.7998 4.47595 12.2417 5.2039 12.5433C5.93185 12.8448 6.71207 13 7.5 13C8.28793 13 9.06815 12.8448 9.7961 12.5433C10.5241 12.2417 11.1855 11.7998 11.7426 11.2426C12.2998 10.6855 12.7417 10.0241 13.0433 9.2961C13.3448 8.56815 13.5 7.78793 13.5 7C13.5 6.21207 13.3448 5.43185 13.0433 4.7039C12.7417 3.97595 12.2998 3.31451 11.7426 2.75736C11.1855 2.20021 10.5241 1.75825 9.7961 1.45672C9.06815 1.15519 8.28793 1 7.5 1C6.71207 1 5.93185 1.15519 5.2039 1.45672C4.47595 1.75825 3.81451 2.20021 3.25736 2.75736C2.70021 3.31451 2.25825 3.97595 1.95672 4.7039C1.65519 5.43185 1.5 6.21207 1.5 7Z" stroke="#8C8C8C" stroke-width="2" stroke-linecap="round" stroke-linejoin="round"/>
</svg>
