<svg width="20" height="16" viewBox="0 0 20 16" fill="none" xmlns="http://www.w3.org/2000/svg">
<path d="M1.00006 3C1.00006 2.46957 1.21077 1.96086 1.58585 1.58579C1.96092 1.21071 2.46963 1 3.00006 1H17.0001C17.5305 1 18.0392 1.21071 18.4143 1.58579C18.7893 1.96086 19.0001 2.46957 19.0001 3M1.00006 3V13C1.00006 13.5304 1.21077 14.0391 1.58585 14.4142C1.96092 14.7893 2.46963 15 3.00006 15H17.0001C17.5305 15 18.0392 14.7893 18.4143 14.4142C18.7893 14.0391 19.0001 13.5304 19.0001 13V3M1.00006 3L10.0001 9L19.0001 3" stroke="#4B4B4B" stroke-width="2" stroke-linecap="round" stroke-linejoin="round"/>
</svg>
