<svg width="18" height="19" viewBox="0 0 18 19" fill="none" xmlns="http://www.w3.org/2000/svg">
<path d="M16 0.707031C16.5304 0.707031 17.0391 0.917745 17.4142 1.29282C17.7893 1.66789 18 2.1766 18 2.70703V16.707C18 17.2375 17.7893 17.7462 17.4142 18.1212C17.0391 18.4963 16.5304 18.707 16 18.707H2C1.46957 18.707 0.960859 18.4963 0.585786 18.1212C0.210714 17.7462 0 17.2375 0 16.707V2.70703C0 2.1766 0.210714 1.66789 0.585786 1.29282C0.960859 0.917745 1.46957 0.707031 2 0.707031H16ZM15.5 16.207V10.907C15.5 10.0424 15.1565 9.21323 14.5452 8.60186C13.9338 7.99049 13.1046 7.64703 12.24 7.64703C11.39 7.64703 10.4 8.16703 9.92 8.94703V7.83703H7.13V16.207H9.92V11.277C9.92 10.507 10.54 9.87703 11.31 9.87703C11.6813 9.87703 12.0374 10.0245 12.2999 10.2871C12.5625 10.5496 12.71 10.9057 12.71 11.277V16.207H15.5ZM3.88 6.26703C4.32556 6.26703 4.75288 6.09003 5.06794 5.77497C5.383 5.45991 5.56 5.0326 5.56 4.58703C5.56 3.65703 4.81 2.89703 3.88 2.89703C3.43178 2.89703 3.00193 3.07508 2.68499 3.39202C2.36805 3.70896 2.19 4.13882 2.19 4.58703C2.19 5.51703 2.95 6.26703 3.88 6.26703ZM5.27 16.207V7.83703H2.5V16.207H5.27Z" fill="#29363C"/>
</svg>
