<svg width="62" height="64" viewBox="0 0 62 64" fill="none" xmlns="http://www.w3.org/2000/svg">
<path fill-rule="evenodd" clip-rule="evenodd" d="M23.9101 4.09627L6.07109 15.9896L2.86921 18.2768L1.03956 20.564L0.582153 22.8512V26.5107V50.7549L1.03956 52.5846L1.49697 53.4995H2.4118L3.32662 53.0421L6.98591 50.2974L8.81556 48.4677L9.27296 48.0102V47.5528V44.3507V26.0533L9.73038 24.6809L11.1026 23.3086L15.6767 20.1066L16.5915 19.6491L17.5064 19.1917L18.4212 19.6491L19.7934 20.1066L27.5694 26.5107L30.3139 28.3404L31.2287 28.7979H32.1435H33.0583L33.9732 28.3404L36.7176 26.0533L43.5788 20.564L44.4936 20.1066L45.4085 19.6491L46.3233 20.1066L47.2381 20.564L50.8974 22.8512L52.2696 24.2235V26.0533V45.2656V46.6379L58.6734 41.1487L60.503 39.7764L61.4178 38.8615V37.4892V26.5107V22.8512L60.9604 20.1066L60.0456 19.1917L59.1308 17.8194L55.9289 15.5322L39.4621 3.63883L34.888 1.35165L33.5158 0.436768H31.6861L29.8565 0.894203L28.0268 1.35165L23.9101 4.09627Z" fill="white"/>
<path fill-rule="evenodd" clip-rule="evenodd" d="M31.2287 42.521L19.336 32.9148L18.8786 32.4574H17.9638L17.5064 32.9148L17.049 33.8297V60.8185L17.5064 61.7334L17.9638 62.1908H18.8786L19.7934 61.7334L25.7398 56.7016L26.1972 56.2442V55.3293V48.4677V48.0103H26.6546H27.112L31.2287 51.6698H32.1435H32.6009L35.3454 49.3826H35.8028L36.2602 49.84V58.0739V58.5313L36.7176 58.9888L37.6325 58.5313L43.5788 53.4995V53.0421L44.0362 53.4995V53.957V63.1057L44.4936 63.5632H44.951L51.3548 58.0739L52.2696 57.6165V56.2442V45.2656L44.951 50.7549L44.4936 51.2123L44.0362 50.2975V34.2871V33.8297H43.5788L42.664 34.2871L32.6009 42.521H31.6861H31.2287Z" fill="white"/>
</svg>
