<svg width="22" height="20" viewBox="0 0 22 20" fill="none" xmlns="http://www.w3.org/2000/svg">
<path d="M15.0001 2H4.00006C3.20441 2 2.44135 2.31607 1.87874 2.87868C1.31613 3.44129 1.00006 4.20435 1.00006 5V15C1.00006 15.7956 1.31613 16.5587 1.87874 17.1213C2.44135 17.6839 3.20441 18 4.00006 18H15.0001M11.0001 12V12.01M8.00006 12V12.01M5.00006 12V12.01M11.0001 15V15.01M8.00006 15V15.01M5.00006 15V15.01M19.0001 1H17.0001C16.4696 1 15.9609 1.21071 15.5858 1.58579C15.2108 1.96086 15.0001 2.46957 15.0001 3V17C15.0001 17.5304 15.2108 18.0391 15.5858 18.4142C15.9609 18.7893 16.4696 19 17.0001 19H19.0001C19.5305 19 20.0392 18.7893 20.4143 18.4142C20.7893 18.0391 21.0001 17.5304 21.0001 17V3C21.0001 2.46957 20.7893 1.96086 20.4143 1.58579C20.0392 1.21071 19.5305 1 19.0001 1ZM11.0001 6H5.00006V9H11.0001V6Z" stroke="#4B4B4B" stroke-width="2" stroke-linecap="round" stroke-linejoin="round"/>
</svg>
