<svg width="22" height="17" viewBox="0 0 22 17" fill="none" xmlns="http://www.w3.org/2000/svg">
<path d="M21.212 2.36302C20.4489 2.70062 19.6396 2.92239 18.811 3.02102C19.6841 2.49816 20.3373 1.67576 20.649 0.707019C19.829 1.19502 18.93 1.53702 17.994 1.72202C17.3646 1.0486 16.5304 0.601982 15.621 0.451604C14.7116 0.301225 13.7779 0.45551 12.9653 0.890472C12.1526 1.32543 11.5064 2.0167 11.1271 2.85681C10.7478 3.69692 10.6568 4.6388 10.868 5.53602C9.20494 5.45281 7.57797 5.02075 6.09274 4.26788C4.60752 3.51502 3.29724 2.45819 2.247 1.16602C1.87529 1.80447 1.67996 2.53025 1.681 3.26902C1.681 4.71902 2.42 6.00002 3.541 6.75002C2.87702 6.72908 2.22765 6.54976 1.647 6.22702V6.27802C1.64697 7.24389 1.98104 8.18004 2.59253 8.92769C3.20403 9.67534 4.05532 10.1885 5.002 10.38C4.38564 10.5472 3.7393 10.5719 3.112 10.452C3.37893 11.2834 3.89922 12.0105 4.6 12.5314C5.30078 13.0523 6.14696 13.341 7.02 13.357C6.15236 14.0385 5.15889 14.5422 4.09641 14.8394C3.03393 15.1366 1.92329 15.2214 0.828003 15.089C2.73972 16.3184 4.96511 16.9711 7.238 16.969C14.932 16.969 19.138 10.596 19.138 5.06902C19.138 4.88902 19.134 4.70702 19.126 4.52802C19.9444 3.93638 20.6508 3.20258 21.212 2.36302Z" fill="#29363C"/>
</svg>
